{"title":"Hellsing Ultimate OVA 1 &amp; 2 BR Rip ACC-Treez (Kingdom Release)","uid":5865720,"size":2226453958,"categoryP":"video","categoryS":"movies","magnet":"?xt=urn:btih:2c589577f0f88df7ef25908a33582e07f84979ed&amp;dn=Hellsing+Ultimate+OVA+1+%26+2+BR+Rip+ACC-Treez+%28Kingdom+Release%29&amp;tr=udp%3A%2F%2Ftracker.openbittorrent.com%3A80&amp;tr=udp%3A%2F%2Fopen.demonii.com%3A1337&amp;tr=udp%3A%2F%2Ftracker.coppersurfer.tk%3A6969&amp;tr=udp%3A%2F%2Fexodus.desync.com%3A6969","seeders":0,"leechers":0,"uploader":"Treezluv2draw","files":5,"time":1286158780,"description":"Video\nID                               : 201\nFormat                           : MPEG-4 Visual\nFormat profile                   : Advanced Simple@L5\nFormat settings, BVOP            : Yes\nFormat settings, QPel            : No\nFormat settings, GMC             : No warppoints\nFormat settings, Matrix          : Default (H.263)\nCodec ID                         : 20\nDuration                         : 50mn 17s\nBit rate mode                    : Variable\nBit rate                         : 2 841 Kbps\nMaximum bit rate                 : 9 358 Kbps\nWidth                            : 1 280 pixels\nHeight                           : 688 pixels\nDisplay aspect ratio             : 1.860\nFrame rate mode                  : Variable\nFrame rate                       : 23.976 fps\nMinimum frame rate               : 11.988 fps\nMaximum frame rate               : 23.976 fps\nColor space                      : YUV\nChroma subsampling               : 4:2:0\nBit depth                        : 8 bits\nScan type                        : Progressive\nBits/(Pixel*Frame)               : 0.135\nStream size                      : 1 022 MiB (96%)\nWriting library                  : XviD 1.2.1 (UTC 2008-12-04)\nEncoded date                     : UTC 2010-10-01 22:17:53\nTagged date                      : UTC 2010-10-01 22:19:52\n\nAudio\nID                               : 101\nFormat                           : AAC\nFormat/Info                      : Advanced Audio Codec\nFormat version                   : Version 4\nFormat profile                   : LC\nFormat settings, SBR             : No\nCodec ID                         : 40\nDuration                         : 50mn 17s\nBit rate mode                    : Variable\nBit rate                         : 111 Kbps\nMaximum bit rate                 : 149 Kbps\nChannel(s)                       : 2 channels\nChannel positions                : Front: L R\nSampling rate                    : 48.0 KHz\nStream size                      : 39.9 MiB (4%)\nEncoded date                     : UTC 2010-10-01 22:19:32\nTagged date                      : UTC 2010-10-01 22:19:52\n","torrent":{"xt":"urn:btih:2c589577f0f88df7ef25908a33582e07f84979ed","amp;dn":"Hellsing+Ultimate+OVA+1+%26+2+BR+Rip+ACC-Treez+%28Kingdom+Release%29","amp;tr":["udp%3A%2F%2Ftracker.openbittorrent.com%3A80","udp%3A%2F%2Fopen.demonii.com%3A1337","udp%3A%2F%2Ftracker.coppersurfer.tk%3A6969","udp%3A%2F%2Fexodus.desync.com%3A6969"],"infoHash":"2c589577f0f88df7ef25908a33582e07f84979ed","infoHashBuffer":{"type":"Buffer","data":[44,88,149,119,240,248,141,247,239,37,144,138,51,88,46,7,248,73,121,237]},"announce":[],"urlList":[]}}